<svg width="165" height="42" viewBox="0 0 165 42" fill="none" xmlns="http://www.w3.org/2000/svg">
<rect width="37" height="37" fill="#CD4C4C"/>
<rect x="5" y="5" width="37" height="37" fill="#FF5E5E"/>
<path d="M63.696 32L60.456 27.32H60.264H56.88V32H52.992V15.2H60.264C61.752 15.2 63.04 15.448 64.128 15.944C65.232 16.44 66.08 17.144 66.672 18.056C67.264 18.968 67.56 20.048 67.56 21.296C67.56 22.544 67.256 23.624 66.648 24.536C66.056 25.432 65.208 26.12 64.104 26.6L67.872 32H63.696ZM63.624 21.296C63.624 20.352 63.32 19.632 62.712 19.136C62.104 18.624 61.216 18.368 60.048 18.368H56.88V24.224H60.048C61.216 24.224 62.104 23.968 62.712 23.456C63.32 22.944 63.624 22.224 63.624 21.296ZM83.0244 25.592C83.0244 25.64 83.0004 25.976 82.9524 26.6H73.1844C73.3604 27.4 73.7764 28.032 74.4324 28.496C75.0884 28.96 75.9044 29.192 76.8804 29.192C77.5524 29.192 78.1444 29.096 78.6564 28.904C79.1844 28.696 79.6724 28.376 80.1204 27.944L82.1124 30.104C80.8964 31.496 79.1204 32.192 76.7844 32.192C75.3284 32.192 74.0404 31.912 72.9204 31.352C71.8004 30.776 70.9364 29.984 70.3284 28.976C69.7204 27.968 69.4164 26.824 69.4164 25.544C69.4164 24.28 69.7124 23.144 70.3044 22.136C70.9124 21.112 71.7364 20.32 72.7764 19.76C73.8324 19.184 75.0084 18.896 76.3044 18.896C77.5684 18.896 78.7124 19.168 79.7364 19.712C80.7604 20.256 81.5604 21.04 82.1364 22.064C82.7284 23.072 83.0244 24.248 83.0244 25.592ZM76.3284 21.728C75.4804 21.728 74.7684 21.968 74.1924 22.448C73.6164 22.928 73.2644 23.584 73.1364 24.416H79.4964C79.3684 23.6 79.0164 22.952 78.4404 22.472C77.8644 21.976 77.1604 21.728 76.3284 21.728ZM98.6691 14.192V32H95.0931V30.512C94.1651 31.632 92.8211 32.192 91.0611 32.192C89.8451 32.192 88.7411 31.92 87.7491 31.376C86.7731 30.832 86.0051 30.056 85.4451 29.048C84.8851 28.04 84.6051 26.872 84.6051 25.544C84.6051 24.216 84.8851 23.048 85.4451 22.04C86.0051 21.032 86.7731 20.256 87.7491 19.712C88.7411 19.168 89.8451 18.896 91.0611 18.896C92.7091 18.896 93.9971 19.416 94.9251 20.456V14.192H98.6691ZM91.7091 29.12C92.6531 29.12 93.4371 28.8 94.0611 28.16C94.6851 27.504 94.9971 26.632 94.9971 25.544C94.9971 24.456 94.6851 23.592 94.0611 22.952C93.4371 22.296 92.6531 21.968 91.7091 21.968C90.7491 21.968 89.9571 22.296 89.3331 22.952C88.7091 23.592 88.3971 24.456 88.3971 25.544C88.3971 26.632 88.7091 27.504 89.3331 28.16C89.9571 28.8 90.7491 29.12 91.7091 29.12Z" fill="#CD4C4C"/>
<path d="M110.438 32.144C108.774 32.144 107.27 31.776 105.926 31.04C104.598 30.304 103.55 29.288 102.782 27.992C102.03 26.68 101.654 25.216 101.654 23.6C101.654 21.984 102.03 20.528 102.782 19.232C103.55 17.92 104.606 16.896 105.95 16.16C107.294 15.424 108.798 15.056 110.462 15.056C111.71 15.056 112.862 15.264 113.918 15.68C114.974 16.096 115.87 16.704 116.606 17.504L115.478 18.632C114.166 17.304 112.51 16.64 110.51 16.64C109.182 16.64 107.974 16.944 106.886 17.552C105.798 18.16 104.942 18.992 104.318 20.048C103.71 21.104 103.406 22.288 103.406 23.6C103.406 24.912 103.71 26.096 104.318 27.152C104.942 28.208 105.798 29.04 106.886 29.648C107.974 30.256 109.182 30.56 110.51 30.56C112.526 30.56 114.182 29.888 115.478 28.544L116.606 29.672C115.87 30.472 114.966 31.088 113.894 31.52C112.838 31.936 111.686 32.144 110.438 32.144ZM126.464 19.28C128.048 19.28 129.304 19.744 130.232 20.672C131.176 21.584 131.648 22.92 131.648 24.68V32H129.944V24.848C129.944 23.536 129.616 22.536 128.96 21.848C128.304 21.16 127.368 20.816 126.152 20.816C124.792 20.816 123.712 21.224 122.912 22.04C122.128 22.84 121.736 23.952 121.736 25.376V32H120.032V14.192H121.736V21.584C122.2 20.848 122.84 20.28 123.656 19.88C124.472 19.48 125.408 19.28 126.464 19.28ZM140.69 19.28C142.338 19.28 143.602 19.696 144.482 20.528C145.362 21.344 145.802 22.56 145.802 24.176V32H144.17V30.032C143.786 30.688 143.218 31.2 142.466 31.568C141.73 31.936 140.85 32.12 139.826 32.12C138.418 32.12 137.298 31.784 136.466 31.112C135.634 30.44 135.218 29.552 135.218 28.448C135.218 27.376 135.602 26.512 136.37 25.856C137.154 25.2 138.394 24.872 140.09 24.872H144.098V24.104C144.098 23.016 143.794 22.192 143.186 21.632C142.578 21.056 141.69 20.768 140.522 20.768C139.722 20.768 138.954 20.904 138.218 21.176C137.482 21.432 136.85 21.792 136.322 22.256L135.554 20.984C136.194 20.44 136.962 20.024 137.858 19.736C138.754 19.432 139.698 19.28 140.69 19.28ZM140.09 30.776C141.05 30.776 141.874 30.56 142.562 30.128C143.25 29.68 143.762 29.04 144.098 28.208V26.144H140.138C137.978 26.144 136.898 26.896 136.898 28.4C136.898 29.136 137.178 29.72 137.738 30.152C138.298 30.568 139.082 30.776 140.09 30.776ZM150.431 19.376H152.135V32H150.431V19.376ZM151.295 16.616C150.943 16.616 150.647 16.496 150.407 16.256C150.167 16.016 150.047 15.728 150.047 15.392C150.047 15.072 150.167 14.792 150.407 14.552C150.647 14.312 150.943 14.192 151.295 14.192C151.647 14.192 151.943 14.312 152.183 14.552C152.423 14.776 152.543 15.048 152.543 15.368C152.543 15.72 152.423 16.016 152.183 16.256C151.943 16.496 151.647 16.616 151.295 16.616ZM158.508 21.848C158.908 21 159.5 20.36 160.284 19.928C161.084 19.496 162.068 19.28 163.236 19.28V20.936L162.828 20.912C161.5 20.912 160.46 21.32 159.708 22.136C158.956 22.952 158.58 24.096 158.58 25.568V32H156.876V19.376H158.508V21.848Z" fill="#272727"/>
</svg>
